<mxfile host="app.diagrams.net" modified="2023-07-06T11:09:59.900Z" agent="Mozilla/5.0 (X11; Ubuntu; Linux x86_64; rv:109.0) Gecko/20100101 Firefox/114.0" etag="m2ILgse2zIY9AMEwprGI" version="21.3.7" type="device">
  <diagram name="Page-1" id="tzQITGD-KAaS58YVqhrc">
    <mxGraphModel dx="1437" dy="1126" grid="1" gridSize="10" guides="1" tooltips="1" connect="1" arrows="1" fold="1" page="1" pageScale="1" pageWidth="827" pageHeight="1169" math="0" shadow="0">
      <root>
        <mxCell id="0" />
        <mxCell id="1" parent="0" />
        <mxCell id="eHgLXqpAeeJmSoNgKmg_-1" value="Système" style="rounded=0;whiteSpace=wrap;html=1;" parent="1" vertex="1">
          <mxGeometry x="352" y="105" width="104" height="30" as="geometry" />
        </mxCell>
        <mxCell id="eHgLXqpAeeJmSoNgKmg_-2" value=": Utilisateur" style="shape=umlActor;verticalLabelPosition=bottom;verticalAlign=top;html=1;outlineConnect=0;" parent="1" vertex="1">
          <mxGeometry x="30" y="90" width="30" height="60" as="geometry" />
        </mxCell>
        <mxCell id="eHgLXqpAeeJmSoNgKmg_-5" value="" style="endArrow=classic;html=1;rounded=0;" parent="1" edge="1">
          <mxGeometry relative="1" as="geometry">
            <mxPoint x="50" y="200" as="sourcePoint" />
            <mxPoint x="399" y="200" as="targetPoint" />
            <Array as="points">
              <mxPoint x="120" y="200" />
              <mxPoint x="170" y="200" />
            </Array>
          </mxGeometry>
        </mxCell>
        <mxCell id="eHgLXqpAeeJmSoNgKmg_-6" value="1 : inscription()" style="edgeLabel;resizable=0;html=1;align=center;verticalAlign=middle;" parent="eHgLXqpAeeJmSoNgKmg_-5" connectable="0" vertex="1">
          <mxGeometry relative="1" as="geometry">
            <mxPoint y="-10" as="offset" />
          </mxGeometry>
        </mxCell>
        <mxCell id="eHgLXqpAeeJmSoNgKmg_-7" value="" style="html=1;points=[];perimeter=orthogonalPerimeter;outlineConnect=0;targetShapes=umlLifeline;portConstraint=eastwest;newEdgeStyle={&quot;edgeStyle&quot;:&quot;elbowEdgeStyle&quot;,&quot;elbow&quot;:&quot;vertical&quot;,&quot;curved&quot;:0,&quot;rounded&quot;:0};" parent="1" vertex="1">
          <mxGeometry x="40" y="200" width="10" height="250" as="geometry" />
        </mxCell>
        <mxCell id="eHgLXqpAeeJmSoNgKmg_-8" value="" style="html=1;points=[];perimeter=orthogonalPerimeter;outlineConnect=0;targetShapes=umlLifeline;portConstraint=eastwest;newEdgeStyle={&quot;edgeStyle&quot;:&quot;elbowEdgeStyle&quot;,&quot;elbow&quot;:&quot;vertical&quot;,&quot;curved&quot;:0,&quot;rounded&quot;:0};" parent="1" vertex="1">
          <mxGeometry x="399" y="200" width="10" height="250" as="geometry" />
        </mxCell>
        <mxCell id="eHgLXqpAeeJmSoNgKmg_-9" value="" style="endArrow=classic;html=1;rounded=0;" parent="1" edge="1">
          <mxGeometry relative="1" as="geometry">
            <mxPoint x="50" y="360" as="sourcePoint" />
            <mxPoint x="399" y="360" as="targetPoint" />
            <Array as="points">
              <mxPoint x="120" y="360" />
              <mxPoint x="170" y="360" />
            </Array>
          </mxGeometry>
        </mxCell>
        <mxCell id="eHgLXqpAeeJmSoNgKmg_-10" value="1.5 : demande de connexion()" style="edgeLabel;resizable=0;html=1;align=center;verticalAlign=middle;" parent="eHgLXqpAeeJmSoNgKmg_-9" connectable="0" vertex="1">
          <mxGeometry relative="1" as="geometry">
            <mxPoint y="-10" as="offset" />
          </mxGeometry>
        </mxCell>
        <mxCell id="eHgLXqpAeeJmSoNgKmg_-11" value="" style="html=1;points=[];perimeter=orthogonalPerimeter;outlineConnect=0;targetShapes=umlLifeline;portConstraint=eastwest;newEdgeStyle={&quot;edgeStyle&quot;:&quot;elbowEdgeStyle&quot;,&quot;elbow&quot;:&quot;vertical&quot;,&quot;curved&quot;:0,&quot;rounded&quot;:0};" parent="1" vertex="1">
          <mxGeometry x="409" y="380" width="10" height="20" as="geometry" />
        </mxCell>
        <mxCell id="eHgLXqpAeeJmSoNgKmg_-23" value="" style="endArrow=classic;html=1;rounded=0;" parent="1" edge="1">
          <mxGeometry relative="1" as="geometry">
            <mxPoint x="410" y="360" as="sourcePoint" />
            <mxPoint x="420" y="400" as="targetPoint" />
            <Array as="points">
              <mxPoint x="490" y="360" />
              <mxPoint x="490" y="400" />
            </Array>
          </mxGeometry>
        </mxCell>
        <mxCell id="eHgLXqpAeeJmSoNgKmg_-24" value="1. 6 : vérification compte()" style="edgeLabel;resizable=0;html=1;align=center;verticalAlign=middle;" parent="eHgLXqpAeeJmSoNgKmg_-23" connectable="0" vertex="1">
          <mxGeometry relative="1" as="geometry">
            <mxPoint x="10" y="5" as="offset" />
          </mxGeometry>
        </mxCell>
        <mxCell id="eHgLXqpAeeJmSoNgKmg_-39" value="sd Connexion" style="text;html=1;align=center;verticalAlign=middle;resizable=0;points=[];autosize=1;strokeColor=none;fillColor=none;" parent="1" vertex="1">
          <mxGeometry x="50" y="20" width="100" height="30" as="geometry" />
        </mxCell>
        <mxCell id="eHgLXqpAeeJmSoNgKmg_-40" value="" style="endArrow=none;dashed=1;html=1;dashPattern=1 3;strokeWidth=2;rounded=0;" parent="1" source="eHgLXqpAeeJmSoNgKmg_-8" edge="1">
          <mxGeometry width="50" height="50" relative="1" as="geometry">
            <mxPoint x="359" y="185" as="sourcePoint" />
            <mxPoint x="409" y="135" as="targetPoint" />
          </mxGeometry>
        </mxCell>
        <mxCell id="eHgLXqpAeeJmSoNgKmg_-42" value="" style="endArrow=none;dashed=1;html=1;dashPattern=1 3;strokeWidth=2;rounded=0;" parent="1" edge="1">
          <mxGeometry width="50" height="50" relative="1" as="geometry">
            <mxPoint x="44.5" y="200" as="sourcePoint" />
            <mxPoint x="44.5" y="170" as="targetPoint" />
          </mxGeometry>
        </mxCell>
        <mxCell id="du5Uy9XcScP242ZGjxqg-3" value="" style="endArrow=classic;html=1;rounded=0;" parent="1" target="eHgLXqpAeeJmSoNgKmg_-7" edge="1">
          <mxGeometry relative="1" as="geometry">
            <mxPoint x="260" y="400" as="sourcePoint" />
            <mxPoint x="60" y="400" as="targetPoint" />
            <Array as="points">
              <mxPoint x="330" y="400" />
              <mxPoint x="400" y="400" />
            </Array>
          </mxGeometry>
        </mxCell>
        <mxCell id="du5Uy9XcScP242ZGjxqg-4" value="1.7 : connexion acceptée()" style="edgeLabel;resizable=0;html=1;align=center;verticalAlign=middle;" parent="du5Uy9XcScP242ZGjxqg-3" connectable="0" vertex="1">
          <mxGeometry relative="1" as="geometry">
            <mxPoint x="-65" y="-10" as="offset" />
          </mxGeometry>
        </mxCell>
        <mxCell id="du5Uy9XcScP242ZGjxqg-7" value="" style="endArrow=classic;html=1;rounded=0;" parent="1" edge="1">
          <mxGeometry relative="1" as="geometry">
            <mxPoint x="279" y="320" as="sourcePoint" />
            <mxPoint x="50" y="320" as="targetPoint" />
            <Array as="points">
              <mxPoint x="349" y="320" />
              <mxPoint x="399" y="320" />
            </Array>
          </mxGeometry>
        </mxCell>
        <mxCell id="du5Uy9XcScP242ZGjxqg-8" value="1.4 : confirmation d&#39;inscription()" style="edgeLabel;resizable=0;html=1;align=center;verticalAlign=middle;" parent="du5Uy9XcScP242ZGjxqg-7" connectable="0" vertex="1">
          <mxGeometry relative="1" as="geometry">
            <mxPoint x="-54" y="-10" as="offset" />
          </mxGeometry>
        </mxCell>
        <mxCell id="du5Uy9XcScP242ZGjxqg-9" value="" style="html=1;points=[];perimeter=orthogonalPerimeter;outlineConnect=0;targetShapes=umlLifeline;portConstraint=eastwest;newEdgeStyle={&quot;edgeStyle&quot;:&quot;elbowEdgeStyle&quot;,&quot;elbow&quot;:&quot;vertical&quot;,&quot;curved&quot;:0,&quot;rounded&quot;:0};" parent="1" vertex="1">
          <mxGeometry x="409" y="300" width="10" height="20" as="geometry" />
        </mxCell>
        <mxCell id="du5Uy9XcScP242ZGjxqg-10" value="" style="endArrow=classic;html=1;rounded=0;" parent="1" edge="1">
          <mxGeometry relative="1" as="geometry">
            <mxPoint x="410" y="280" as="sourcePoint" />
            <mxPoint x="420" y="320" as="targetPoint" />
            <Array as="points">
              <mxPoint x="490" y="280" />
              <mxPoint x="490" y="320" />
            </Array>
          </mxGeometry>
        </mxCell>
        <mxCell id="du5Uy9XcScP242ZGjxqg-11" value="1.3 : création compte()" style="edgeLabel;resizable=0;html=1;align=center;verticalAlign=middle;" parent="du5Uy9XcScP242ZGjxqg-10" connectable="0" vertex="1">
          <mxGeometry relative="1" as="geometry">
            <mxPoint x="10" y="5" as="offset" />
          </mxGeometry>
        </mxCell>
        <mxCell id="sj6ArJCaqp03CN1w2id--2" value="" style="endArrow=classic;html=1;rounded=0;" edge="1" parent="1">
          <mxGeometry relative="1" as="geometry">
            <mxPoint x="409" y="200" as="sourcePoint" />
            <mxPoint x="758" y="200" as="targetPoint" />
            <Array as="points">
              <mxPoint x="479" y="200" />
              <mxPoint x="529" y="200" />
            </Array>
          </mxGeometry>
        </mxCell>
        <mxCell id="sj6ArJCaqp03CN1w2id--3" value="1.1 : demande de validation ()" style="edgeLabel;resizable=0;html=1;align=center;verticalAlign=middle;" connectable="0" vertex="1" parent="sj6ArJCaqp03CN1w2id--2">
          <mxGeometry relative="1" as="geometry">
            <mxPoint y="-10" as="offset" />
          </mxGeometry>
        </mxCell>
        <mxCell id="sj6ArJCaqp03CN1w2id--4" value="" style="html=1;points=[];perimeter=orthogonalPerimeter;outlineConnect=0;targetShapes=umlLifeline;portConstraint=eastwest;newEdgeStyle={&quot;edgeStyle&quot;:&quot;elbowEdgeStyle&quot;,&quot;elbow&quot;:&quot;vertical&quot;,&quot;curved&quot;:0,&quot;rounded&quot;:0};" vertex="1" parent="1">
          <mxGeometry x="760" y="200" width="10" height="250" as="geometry" />
        </mxCell>
        <mxCell id="sj6ArJCaqp03CN1w2id--5" value="" style="endArrow=classic;html=1;rounded=0;" edge="1" parent="1">
          <mxGeometry relative="1" as="geometry">
            <mxPoint x="638" y="240" as="sourcePoint" />
            <mxPoint x="409" y="240" as="targetPoint" />
            <Array as="points">
              <mxPoint x="708" y="240" />
              <mxPoint x="758" y="240" />
            </Array>
          </mxGeometry>
        </mxCell>
        <mxCell id="sj6ArJCaqp03CN1w2id--6" value="1.2 : validation()" style="edgeLabel;resizable=0;html=1;align=center;verticalAlign=middle;" connectable="0" vertex="1" parent="sj6ArJCaqp03CN1w2id--5">
          <mxGeometry relative="1" as="geometry">
            <mxPoint x="-54" y="-10" as="offset" />
          </mxGeometry>
        </mxCell>
        <mxCell id="sj6ArJCaqp03CN1w2id--9" value=": Administrateur" style="shape=umlActor;verticalLabelPosition=bottom;verticalAlign=top;html=1;outlineConnect=0;" vertex="1" parent="1">
          <mxGeometry x="750" y="90" width="30" height="60" as="geometry" />
        </mxCell>
        <mxCell id="sj6ArJCaqp03CN1w2id--11" value="" style="endArrow=none;dashed=1;html=1;dashPattern=1 3;strokeWidth=2;rounded=0;" edge="1" parent="1">
          <mxGeometry width="50" height="50" relative="1" as="geometry">
            <mxPoint x="764.5" y="200" as="sourcePoint" />
            <mxPoint x="764.5" y="170" as="targetPoint" />
          </mxGeometry>
        </mxCell>
      </root>
    </mxGraphModel>
  </diagram>
</mxfile>
